<?xml version="1.0" encoding="iso-8859-1"?>
<!-- Uploaded to: SVG Repo, www.svgrepo.com, Generator: SVG Repo Mixer Tools -->
<svg fill="#000000" height="800px" width="800px" version="1.1" id="Layer_1" xmlns="http://www.w3.org/2000/svg" xmlns:xlink="http://www.w3.org/1999/xlink" 
	 viewBox="0 0 508.174 508.174" xml:space="preserve">
<g>
	<g>
		<g>
			<path d="M299.587,11.689c-7.457-3.829-16.339-3.161-23.129,1.67L155.826,99.53v87.775c0,12.288-9.951,22.261-22.261,22.261
				c-12.31,0-22.261-9.973-22.261-22.261v-66.783H22.261C9.951,120.522,0,130.495,0,142.783v222.609
				c0,12.288,9.951,22.261,22.261,22.261h89.043V320.87c0-12.288,9.951-22.261,22.261-22.261c12.31,0,22.261,9.973,22.261,22.261
				v87.775l120.632,86.172c3.851,2.738,8.37,4.141,12.934,4.141c3.473,0,6.968-0.801,10.195-2.471
				c7.413-3.807,12.065-11.442,12.065-19.79V31.479C311.652,23.153,307,15.496,299.587,11.689z"/>
			<path d="M454.431,254.092l47.215-47.238c8.704-8.682,8.704-22.795,0-31.477c-8.682-8.682-22.773-8.682-31.477,0l-47.215,47.238
				l-47.215-47.238c-8.704-8.682-22.773-8.682-31.477,0c-8.704,8.682-8.704,22.795,0,31.477l47.215,47.238l-47.215,47.238
				c-8.704,8.682-8.704,22.795,0,31.477c4.341,4.341,10.04,6.522,15.738,6.522s11.398-2.182,15.738-6.522l47.215-47.238
				l47.215,47.238c4.341,4.341,10.04,6.522,15.738,6.522s11.398-2.182,15.738-6.522c8.704-8.682,8.704-22.795,0-31.477
				L454.431,254.092z"/>
		</g>
	</g>
</g>
</svg>